<svg xmlns="http://www.w3.org/2000/svg" xmlns:xlink="http://www.w3.org/1999/xlink" width="1080" zoomAndPan="magnify" viewBox="0 0 810 809.999993" height="1080" preserveAspectRatio="xMidYMid meet" version="1.0"><defs><g/><clipPath id="61d0d797ee"><path d="M 46.621094 333.53125 L 115.621094 333.53125 L 115.621094 447.53125 L 46.621094 447.53125 Z M 46.621094 333.53125 " clip-rule="nonzero"/></clipPath><clipPath id="84f04984c8"><path d="M 679.46875 333.636719 L 748.46875 333.636719 L 748.46875 447.636719 L 679.46875 447.636719 Z M 679.46875 333.636719 " clip-rule="nonzero"/></clipPath></defs><rect x="-81" width="972" fill="#ffffff" y="-80.999999" height="971.999992" fill-opacity="1"/><rect x="-81" width="972" fill="#ffffff" y="-80.999999" height="971.999992" fill-opacity="1"/><rect x="-81" width="972" fill="#ffffff" y="-80.999999" height="971.999992" fill-opacity="1"/><g clip-path="url(#61d0d797ee)"><path fill="#071d54" d="M 103.578125 447.414062 L 46.632812 390.71875 L 103.976562 333.636719 L 115.636719 345.242188 L 69.953125 390.71875 L 115.238281 435.804688 L 103.578125 447.414062 " fill-opacity="1" fill-rule="nonzero"/></g><g fill="#071d54" fill-opacity="1"><g transform="translate(157.315617, 428.249998)"><g><path d="M 24.0625 -62.398438 C 25.277344 -62.863281 26.953125 -63.050781 28.820312 -63.050781 L 62.304688 -63.050781 C 63.144531 -63.050781 64.914062 -63.421875 64.914062 -66.410156 L 64.914062 -68.554688 L 76.761719 -68.554688 L 76.761719 -70.511719 L 73.21875 -70.511719 L 73.21875 -73.589844 C 73.21875 -75.082031 72.75 -75.828125 72.191406 -76.292969 L 59.878906 -76.292969 C 59.320312 -76.761719 58.667969 -76.855469 58.292969 -76.855469 L 24.34375 -76.855469 C 22.011719 -76.855469 19.867188 -76.667969 17.90625 -76.292969 L 34.417969 -76.292969 C 32.925781 -76.015625 31.617188 -75.640625 30.3125 -75.269531 C 27.609375 -74.242188 25.371094 -72.5625 23.597656 -70.511719 L 27.140625 -70.511719 C 27.046875 -70.324219 26.863281 -70.140625 26.769531 -70.046875 C 26.394531 -69.578125 26.023438 -69.019531 25.742188 -68.554688 L 9.605469 -68.554688 C 8.300781 -66.410156 7.273438 -63.890625 6.621094 -60.90625 C 6.527344 -60.53125 6.4375 -60.066406 6.34375 -59.691406 L 18.28125 -59.691406 C 17.90625 -57.921875 17.722656 -55.960938 17.535156 -53.816406 L 6.621094 -53.816406 C 6.4375 -51.859375 6.34375 -49.804688 6.34375 -47.660156 L 6.34375 -44.398438 L 15.203125 -44.398438 L 15.203125 -42.4375 L 8.300781 -42.4375 L 8.300781 -29.195312 C 8.300781 -28.632812 8.300781 -28.074219 8.300781 -27.609375 L 13.335938 -27.609375 C 13.335938 -25.554688 13.429688 -23.597656 13.617188 -21.730469 L 16.320312 -21.730469 C 16.507812 -19.585938 16.789062 -17.628906 17.253906 -15.761719 C 17.816406 -13.335938 18.5625 -11.191406 19.585938 -9.328125 L 11.007812 -9.328125 C 11.472656 -8.300781 12.03125 -7.460938 12.589844 -6.621094 C 13.617188 -5.410156 14.738281 -4.382812 15.949219 -3.449219 L 23.597656 -3.449219 C 24.714844 -2.703125 25.929688 -2.050781 27.328125 -1.585938 L 18 -1.585938 C 18.09375 -1.492188 18.09375 -1.492188 18.1875 -1.492188 C 20.984375 -0.464844 24.53125 0.09375 28.632812 0.09375 L 62.585938 0.09375 C 63.238281 0.09375 64.449219 -0.09375 64.914062 -1.585938 L 74.242188 -1.585938 C 74.335938 -1.957031 74.523438 -2.519531 74.523438 -3.171875 L 74.523438 -3.449219 L 66.875 -3.449219 L 66.875 -9.328125 L 75.546875 -9.328125 L 75.546875 -10.539062 C 75.546875 -13.429688 73.777344 -13.804688 72.9375 -13.804688 L 39.453125 -13.804688 C 37.496094 -13.804688 35.910156 -13.992188 34.695312 -14.457031 C 33.484375 -14.828125 32.550781 -15.484375 31.898438 -16.507812 C 31.152344 -17.441406 30.59375 -18.839844 30.3125 -20.613281 C 30.21875 -20.984375 30.21875 -21.359375 30.125 -21.730469 L 27.421875 -21.730469 C 27.234375 -23.410156 27.140625 -25.371094 27.140625 -27.609375 L 22.105469 -27.609375 L 22.105469 -42.4375 L 45.234375 -42.4375 L 45.234375 -44.398438 L 20.238281 -44.398438 L 20.238281 -49.339844 C 20.238281 -51.019531 20.238281 -52.511719 20.425781 -53.816406 L 31.246094 -53.816406 C 31.339844 -54.75 31.433594 -55.496094 31.617188 -56.242188 C 31.804688 -57.640625 32.269531 -58.761719 32.738281 -59.691406 L 20.800781 -59.691406 C 20.984375 -59.878906 21.078125 -60.160156 21.265625 -60.34375 C 21.917969 -61.371094 22.851562 -62.023438 24.0625 -62.398438 Z M 47.289062 -20.613281 L 67.621094 -20.613281 L 67.621094 -19.585938 L 47.289062 -19.585938 Z M 29.285156 -49.714844 L 49.714844 -49.714844 L 49.714844 -48.6875 L 29.285156 -48.6875 Z M 39.453125 -37.214844 L 69.765625 -37.214844 L 69.765625 -35.347656 L 39.453125 -35.347656 Z M 24.902344 -27.609375 L 36.1875 -27.609375 L 36.1875 -26.582031 L 24.902344 -26.582031 Z M 24.902344 -27.609375 "/></g></g></g><g fill="#071d54" fill-opacity="1"><g transform="translate(236.501438, 428.249998)"><g><path d="M 79.1875 -42.71875 L 79.1875 -47.660156 C 79.1875 -52.324219 78.8125 -56.429688 78.160156 -59.878906 L 71.351562 -59.878906 C 71.257812 -60.253906 71.257812 -60.625 71.164062 -60.90625 C 70.699219 -63.050781 70.046875 -64.914062 69.207031 -66.59375 L 73.496094 -66.59375 C 72.9375 -67.902344 72.285156 -69.019531 71.445312 -70.046875 C 71.070312 -70.511719 70.699219 -70.886719 70.324219 -71.257812 L 75.457031 -71.257812 C 73.777344 -73.03125 71.726562 -74.335938 69.300781 -75.269531 C 66.410156 -76.292969 62.863281 -76.855469 58.761719 -76.855469 L 36.09375 -76.855469 C 31.992188 -76.855469 28.449219 -76.292969 25.554688 -75.269531 C 23.132812 -74.335938 21.171875 -73.03125 19.492188 -71.257812 L 14.363281 -71.257812 C 13.992188 -70.886719 13.523438 -70.511719 13.246094 -70.046875 C 12.40625 -69.019531 11.753906 -67.902344 11.191406 -66.59375 L 6.808594 -66.59375 C 5.96875 -64.914062 5.316406 -63.050781 4.851562 -60.90625 C 4.757812 -60.625 4.757812 -60.253906 4.664062 -59.878906 L 11.472656 -59.878906 C 10.726562 -56.429688 10.351562 -52.324219 10.351562 -47.660156 L 10.351562 -42.71875 L 3.636719 -42.71875 L 3.636719 -40.480469 L 8.019531 -40.480469 L 8.019531 -29.472656 L 4.664062 -29.472656 L 4.664062 -29.195312 C 4.664062 -26.863281 4.757812 -24.714844 4.941406 -22.757812 L 7.835938 -22.757812 C 8.019531 -20.144531 8.394531 -17.816406 8.859375 -15.855469 C 9.140625 -14.644531 9.421875 -13.523438 9.792969 -12.40625 L 3.730469 -12.40625 C 4.011719 -11.660156 4.289062 -10.914062 4.664062 -10.167969 L 13.246094 -10.167969 C 13.804688 -8.859375 14.550781 -7.742188 15.296875 -6.714844 C 16.320312 -5.410156 17.441406 -4.382812 18.746094 -3.449219 L 13.710938 -3.449219 C 14.828125 -2.703125 16.136719 -1.957031 17.535156 -1.492188 C 20.332031 -0.464844 23.878906 0.09375 27.980469 0.09375 L 50.738281 0.09375 C 54.84375 0.09375 58.386719 -0.464844 61.277344 -1.492188 C 62.675781 -1.957031 63.890625 -2.703125 65.101562 -3.449219 L 70.140625 -3.449219 C 71.445312 -4.382812 72.5625 -5.410156 73.589844 -6.621094 C 74.429688 -7.742188 75.082031 -8.859375 75.734375 -10.167969 L 69.578125 -10.167969 C 69.953125 -10.914062 70.230469 -11.660156 70.511719 -12.40625 L 74.148438 -12.40625 C 74.523438 -13.523438 74.894531 -14.644531 75.082031 -15.855469 C 75.546875 -17.90625 75.921875 -20.144531 76.109375 -22.757812 L 78.90625 -22.757812 C 79.09375 -24.714844 79.1875 -26.863281 79.1875 -29.195312 L 79.1875 -29.472656 L 77.601562 -29.472656 L 77.601562 -40.480469 L 74.148438 -40.480469 L 74.148438 -42.71875 Z M 60.253906 -40.480469 L 60.253906 -29.472656 L 65.289062 -29.472656 L 65.289062 -27.515625 C 65.289062 -25.742188 65.195312 -24.15625 65.101562 -22.757812 L 62.304688 -22.757812 C 62.210938 -22.011719 62.117188 -21.265625 62.023438 -20.613281 C 61.652344 -18.933594 61.183594 -17.441406 60.4375 -16.507812 C 59.785156 -15.484375 58.851562 -14.828125 57.640625 -14.457031 C 56.429688 -13.992188 54.84375 -13.804688 52.882812 -13.804688 L 31.058594 -13.804688 C 29.101562 -13.804688 27.515625 -13.992188 26.207031 -14.457031 C 25.089844 -14.828125 24.15625 -15.484375 23.503906 -16.507812 C 22.757812 -17.441406 22.199219 -18.933594 21.917969 -20.613281 C 21.824219 -21.265625 21.730469 -22.011719 21.636719 -22.757812 L 18.746094 -22.757812 C 18.5625 -24.15625 18.46875 -25.742188 18.46875 -27.515625 L 18.46875 -29.472656 L 21.824219 -29.472656 L 21.824219 -40.480469 L 42.8125 -40.480469 L 42.8125 -42.71875 L 24.25 -42.71875 L 24.25 -49.246094 C 24.25 -51.953125 24.34375 -54.28125 24.714844 -56.148438 C 24.996094 -57.734375 25.460938 -58.945312 26.023438 -59.878906 L 19.214844 -59.878906 C 19.308594 -60.066406 19.398438 -60.160156 19.492188 -60.34375 C 20.144531 -61.277344 21.078125 -61.929688 22.292969 -62.398438 C 23.503906 -62.769531 25.089844 -63.050781 27.046875 -63.050781 L 48.875 -63.050781 C 50.832031 -63.050781 52.417969 -62.769531 53.722656 -62.398438 C 54.84375 -61.929688 55.777344 -61.277344 56.429688 -60.34375 C 56.523438 -60.160156 56.613281 -60.066406 56.707031 -59.878906 L 63.515625 -59.878906 C 64.078125 -58.945312 64.542969 -57.640625 64.824219 -56.148438 C 65.195312 -54.28125 65.289062 -51.953125 65.289062 -49.246094 L 65.289062 -42.71875 L 57.921875 -42.71875 L 57.921875 -40.480469 Z M 54.9375 -23.503906 L 41.320312 -23.503906 L 41.320312 -24.714844 L 54.9375 -24.714844 Z M 37.121094 -18.933594 L 28.261719 -18.933594 L 28.261719 -19.585938 L 37.121094 -19.585938 Z M 54.9375 -54.003906 L 37.214844 -54.003906 L 37.214844 -55.777344 L 54.9375 -55.777344 Z M 38.988281 -31.152344 L 25.929688 -31.152344 L 25.929688 -32.085938 L 38.988281 -32.085938 Z M 38.988281 -31.152344 "/></g></g></g><g fill="#071d54" fill-opacity="1"><g transform="translate(324.827678, 428.249998)"><g><path d="M 71.257812 -45.328125 L 71.257812 -45.703125 C 71.257812 -46.261719 71.257812 -46.726562 71.164062 -47.289062 L 75.734375 -47.289062 C 75.640625 -50.738281 75.363281 -53.910156 74.894531 -56.707031 L 66.410156 -56.707031 C 66.222656 -57.734375 66.035156 -58.574219 65.847656 -59.507812 C 65.570312 -60.53125 65.289062 -61.558594 64.914062 -62.585938 L 74.523438 -62.585938 C 73.683594 -65.195312 72.472656 -67.433594 70.976562 -69.300781 C 70.324219 -70.046875 69.671875 -70.792969 68.925781 -71.445312 L 59.507812 -71.445312 C 58.667969 -72.191406 57.828125 -72.84375 56.894531 -73.402344 L 66.128906 -73.402344 C 65.195312 -73.964844 64.078125 -74.523438 62.957031 -74.988281 C 59.785156 -76.203125 56.054688 -76.855469 51.671875 -76.855469 L 19.121094 -76.855469 L 19.121094 -76.761719 C 16.695312 -76.574219 14.457031 -75.363281 13.058594 -73.402344 L 3.824219 -73.402344 C 3.636719 -73.21875 3.542969 -73.03125 3.359375 -72.84375 C 3.171875 -72.378906 2.890625 -71.910156 2.796875 -71.445312 L 12.21875 -71.445312 C 12.125 -71.164062 11.9375 -70.792969 11.9375 -70.511719 L 11.84375 -62.585938 L 2.238281 -62.585938 L 2.238281 -56.707031 L 10.726562 -56.707031 L 10.726562 -47.289062 L 6.25 -47.289062 L 6.25 -45.328125 L 11.9375 -45.328125 L 11.84375 -30.5 L 6.714844 -30.5 L 6.714844 -24.714844 L 10.820312 -24.714844 L 10.820312 -12.21875 L 5.691406 -12.21875 L 5.691406 -6.808594 C 5.691406 -6.621094 5.78125 -6.527344 5.78125 -6.4375 L 10.167969 -6.4375 C 10.351562 -5.691406 10.539062 -5.035156 10.914062 -4.476562 L 2.238281 -4.476562 C 2.332031 -4.289062 2.425781 -4.105469 2.519531 -3.917969 C 4.011719 -1.398438 6.621094 0.09375 9.511719 0.09375 L 41.410156 0.09375 C 45.796875 0.09375 49.621094 -0.558594 52.789062 -1.773438 C 54.46875 -2.425781 56.054688 -3.359375 57.546875 -4.476562 L 66.128906 -4.476562 C 66.875 -5.035156 67.621094 -5.691406 68.273438 -6.4375 L 63.890625 -6.4375 C 64.167969 -6.714844 64.542969 -7.089844 64.824219 -7.554688 C 65.941406 -8.859375 66.875 -10.445312 67.621094 -12.21875 L 72.75 -12.21875 C 73.496094 -13.710938 74.054688 -15.484375 74.523438 -17.253906 C 74.988281 -19.492188 75.363281 -22.011719 75.640625 -24.714844 L 71.445312 -24.714844 C 71.632812 -26.488281 71.726562 -28.449219 71.726562 -30.5 L 76.949219 -30.5 C 76.949219 -30.6875 76.949219 -30.871094 76.949219 -31.058594 L 76.949219 -45.328125 Z M 63.144531 -30.5 L 57.921875 -30.5 L 57.921875 -29.660156 C 57.921875 -27.792969 57.828125 -26.207031 57.640625 -24.714844 L 61.839844 -24.714844 C 61.746094 -23.691406 61.652344 -22.757812 61.464844 -21.917969 C 61.09375 -19.867188 60.4375 -18.28125 59.507812 -17.070312 C 58.667969 -15.949219 57.546875 -15.109375 56.054688 -14.550781 C 54.5625 -13.992188 52.699219 -13.804688 50.550781 -13.804688 L 24.625 -13.804688 C 24.625 -13.804688 24.53125 -13.898438 24.53125 -14.269531 L 24.53125 -16.976562 L 43.371094 -16.976562 L 43.371094 -20.054688 L 24.53125 -20.054688 L 24.53125 -24.714844 L 20.332031 -24.714844 L 20.332031 -30.5 L 25.554688 -30.5 L 25.554688 -45.328125 L 19.867188 -45.328125 L 19.867188 -47.289062 L 24.34375 -47.289062 L 24.34375 -56.707031 L 15.855469 -56.707031 L 15.855469 -62.492188 C 15.855469 -62.492188 15.855469 -62.492188 15.855469 -62.585938 L 25.460938 -62.585938 C 25.554688 -62.863281 25.554688 -63.050781 25.648438 -63.050781 L 51.484375 -63.050781 C 53.164062 -63.050781 54.5625 -62.863281 55.867188 -62.585938 L 46.167969 -62.585938 C 46.636719 -62.492188 47.007812 -62.304688 47.382812 -62.210938 C 48.875 -61.652344 49.992188 -60.90625 50.832031 -59.691406 C 51.484375 -58.945312 51.953125 -57.921875 52.324219 -56.707031 L 60.8125 -56.707031 C 61 -56.148438 61.183594 -55.589844 61.277344 -54.9375 C 61.746094 -52.882812 61.929688 -50.273438 61.929688 -47.289062 L 40.199219 -47.289062 C 40.199219 -47.195312 40.199219 -47.195312 40.199219 -47.101562 L 40.199219 -45.328125 L 63.144531 -45.328125 Z M 31.433594 -30.03125 L 51.859375 -30.03125 L 51.859375 -29.101562 L 31.433594 -29.101562 Z M 22.851562 -38.894531 L 43.183594 -38.894531 L 43.183594 -37.867188 L 22.851562 -37.867188 Z M 24.996094 -60.8125 L 37.960938 -60.8125 L 37.960938 -59.785156 L 24.996094 -59.785156 Z M 24.996094 -60.8125 "/></g></g></g><g fill="#071d54" fill-opacity="1"><g transform="translate(409.516402, 428.249998)"><g><path d="M 63.421875 -73.402344 L 63.421875 -73.777344 C 63.421875 -76.667969 61.652344 -77.042969 60.8125 -77.042969 L 7.273438 -77.042969 C 6.4375 -77.042969 4.664062 -76.667969 4.664062 -73.683594 L 4.664062 -73.402344 L 15.109375 -73.402344 L 15.109375 -71.539062 L 4.664062 -71.539062 L 4.664062 -66.410156 C 4.664062 -66.222656 4.664062 -65.941406 4.757812 -65.753906 L 10.539062 -65.753906 C 10.820312 -63.515625 12.40625 -63.238281 13.058594 -63.238281 L 66.6875 -63.144531 C 67.339844 -63.144531 68.925781 -63.421875 69.207031 -65.753906 L 63.421875 -65.753906 C 63.421875 -65.941406 63.421875 -66.128906 63.421875 -66.410156 L 63.421875 -71.539062 L 73.871094 -71.539062 L 73.871094 -73.402344 Z M 68.925781 -7.183594 L 68.925781 -13.335938 C 68.925781 -14.738281 68.460938 -15.484375 67.902344 -15.949219 L 76.109375 -15.949219 C 75.546875 -16.507812 74.800781 -16.601562 74.429688 -16.601562 L 41.503906 -16.601562 C 39.546875 -16.601562 37.960938 -16.789062 36.75 -17.253906 C 35.535156 -17.628906 34.601562 -18.28125 33.855469 -19.308594 C 33.390625 -19.960938 33.019531 -20.800781 32.738281 -21.730469 L 25.183594 -21.730469 C 24.996094 -22.199219 24.808594 -22.851562 24.714844 -23.410156 C 24.625 -23.96875 24.625 -24.53125 24.53125 -25.089844 C 24.53125 -25.089844 24.53125 -25.648438 24.53125 -26.488281 L 59.039062 -26.488281 C 59.039062 -27.140625 59.039062 -28.074219 59.039062 -28.820312 L 24.625 -28.820312 C 24.625 -29.660156 24.625 -30.5 24.625 -31.058594 L 30.3125 -31.058594 C 30.3125 -31.523438 30.3125 -31.804688 30.3125 -31.804688 L 72.003906 -31.804688 C 72.5625 -31.804688 73.589844 -31.898438 74.148438 -32.925781 L 68.460938 -32.925781 C 68.648438 -33.390625 68.925781 -34.042969 68.925781 -34.976562 L 68.925781 -38.519531 L 73.21875 -38.519531 L 73.21875 -41.132812 L 68.925781 -41.132812 L 68.925781 -42.34375 C 68.925781 -45.234375 67.0625 -45.609375 66.316406 -45.609375 L 18.1875 -45.515625 C 15.484375 -45.328125 13.152344 -43.835938 11.753906 -41.597656 C 11.660156 -41.410156 11.660156 -41.226562 11.566406 -41.132812 L 15.855469 -41.132812 C 15.574219 -40.480469 15.296875 -39.917969 15.109375 -39.171875 L 15.109375 -38.519531 L 10.820312 -38.519531 L 10.726562 -32.925781 L 16.414062 -32.925781 L 16.414062 -31.058594 L 10.820312 -31.058594 L 10.726562 -28.820312 L 19.867188 -28.820312 L 19.867188 -26.953125 C 19.867188 -26.863281 19.867188 -26.675781 19.867188 -26.488281 L 10.726562 -26.488281 C 10.820312 -24.808594 10.914062 -23.222656 11.007812 -21.730469 L 18.652344 -21.730469 C 18.839844 -19.585938 19.121094 -17.722656 19.492188 -15.949219 L 11.285156 -15.949219 C 11.285156 -15.949219 11.378906 -15.855469 11.378906 -15.761719 C 12.125 -12.40625 13.335938 -9.511719 15.015625 -7.183594 L 22.757812 -7.183594 C 22.851562 -7.089844 22.945312 -6.808594 23.132812 -6.621094 C 23.503906 -6.15625 23.878906 -5.78125 24.34375 -5.316406 L 16.695312 -5.316406 C 18.375 -3.636719 20.425781 -2.332031 22.757812 -1.492188 C 25.554688 -0.464844 29.101562 0.09375 33.203125 0.09375 L 66.316406 0.09375 C 67.15625 0.09375 69.019531 -0.28125 69.019531 -3.171875 L 69.019531 -5.316406 L 76.574219 -5.316406 L 76.574219 -7.183594 Z M 15.855469 -51.390625 L 46.726562 -51.390625 L 46.726562 -50.367188 L 15.855469 -50.367188 Z M 44.769531 -21.453125 L 65.476562 -21.453125 L 65.476562 -20.425781 L 44.769531 -20.425781 Z M 29.101562 -59.132812 L 60.71875 -59.132812 L 60.71875 -57.640625 L 29.101562 -57.640625 Z M 29.101562 -59.132812 "/></g></g></g><g fill="#071d54" fill-opacity="1"><g transform="translate(487.862811, 428.249998)"><g><path d="M 61.371094 -37.679688 C 62.769531 -39.734375 63.796875 -42.15625 64.449219 -45.050781 L 76.203125 -45.050781 C 76.386719 -45.703125 76.574219 -46.542969 76.667969 -47.289062 L 63.890625 -47.289062 C 64.261719 -49.339844 64.449219 -51.578125 64.449219 -54.003906 L 74.335938 -54.003906 C 74.335938 -54.097656 74.335938 -54.191406 74.335938 -54.28125 C 74.335938 -56.613281 74.148438 -58.761719 73.871094 -60.625 L 70.230469 -60.625 C 70.230469 -60.71875 70.230469 -60.71875 70.230469 -60.71875 L 66.128906 -60.71875 C 65.753906 -63.238281 65.195312 -65.382812 64.449219 -67.339844 L 71.726562 -67.339844 C 71.164062 -68.648438 70.511719 -69.859375 69.765625 -70.886719 C 68.925781 -72.191406 67.808594 -73.21875 66.5 -74.054688 L 58.574219 -74.054688 C 55.867188 -75.921875 52.417969 -76.855469 48.035156 -76.855469 L 5.035156 -76.855469 C 4.289062 -76.855469 2.613281 -76.574219 2.425781 -74.054688 L 10.351562 -74.054688 C 10.351562 -73.871094 10.351562 -73.777344 10.351562 -73.589844 L 10.351562 -67.339844 L 2.984375 -67.339844 L 2.984375 -66.222656 C 2.984375 -63.332031 4.851562 -63.050781 5.691406 -63.050781 L 46.261719 -63.050781 C 48.6875 -63.050781 50.367188 -62.398438 51.296875 -61 C 51.296875 -60.90625 51.390625 -60.8125 51.390625 -60.71875 L 55.496094 -60.71875 C 55.496094 -60.71875 55.496094 -60.71875 55.496094 -60.625 L 59.132812 -60.625 C 60.066406 -59.226562 60.53125 -57.082031 60.53125 -54.28125 C 60.53125 -54.191406 60.4375 -54.097656 60.4375 -54.003906 L 50.644531 -54.003906 C 50.644531 -51.113281 50.085938 -48.964844 49.152344 -47.566406 C 49.058594 -47.472656 48.964844 -47.382812 48.875 -47.289062 L 61.652344 -47.289062 C 60.625 -46.167969 59.132812 -45.515625 56.894531 -45.515625 L 16.320312 -45.515625 C 15.949219 -45.515625 15.296875 -45.515625 14.644531 -45.050781 L 2.890625 -45.050781 C 2.332031 -44.582031 1.867188 -43.742188 1.867188 -42.34375 L 1.867188 -34.695312 L 10.726562 -34.695312 L 10.726562 -27.980469 L 4.289062 -27.980469 L 4.289062 -17.070312 L 11.191406 -17.070312 L 11.191406 -14.738281 L 4.289062 -14.738281 L 4.289062 -3.171875 C 4.289062 -2.796875 4.289062 -2.425781 4.382812 -2.144531 L 8.675781 -2.144531 C 9.046875 -0.1875 10.539062 0.09375 11.285156 0.09375 L 19.773438 0.09375 C 20.519531 0.09375 21.917969 -0.1875 22.292969 -2.144531 L 18 -2.144531 C 18.09375 -2.425781 18.09375 -2.796875 18.09375 -3.171875 L 18.09375 -14.738281 L 33.484375 -14.738281 L 33.484375 -17.070312 L 18.09375 -17.070312 L 18.09375 -27.980469 L 24.53125 -27.980469 L 24.53125 -31.710938 L 44.210938 -31.710938 L 46.261719 -27.980469 L 39.828125 -27.980469 L 46.074219 -17.070312 L 52.976562 -17.070312 L 54.191406 -14.738281 L 47.382812 -14.738281 L 54.5625 -2.144531 L 58.851562 -2.144531 L 59.039062 -1.773438 C 59.320312 -1.210938 59.691406 -0.746094 59.972656 -0.464844 C 60.4375 -0.09375 61.09375 0.09375 62.023438 0.09375 L 72.191406 0.09375 C 73.308594 0.09375 74.148438 -0.652344 74.335938 -1.773438 C 74.335938 -1.867188 74.335938 -1.957031 74.335938 -2.144531 L 70.046875 -2.144531 C 70.046875 -2.890625 69.953125 -3.542969 69.671875 -4.011719 L 63.332031 -14.738281 L 70.230469 -14.738281 L 68.925781 -17.070312 L 62.023438 -17.070312 L 55.589844 -27.980469 L 62.023438 -27.980469 L 59.691406 -31.992188 C 62.675781 -32.363281 65.195312 -33.296875 67.246094 -34.695312 L 58.386719 -34.695312 C 59.507812 -35.535156 60.53125 -36.5625 61.371094 -37.679688 Z M 28.539062 -48.78125 L 8.953125 -48.78125 L 8.953125 -51.207031 L 28.539062 -51.207031 Z M 37.214844 -58.292969 L 19.960938 -58.292969 L 19.960938 -59.507812 L 37.214844 -59.507812 Z M 42.15625 -8.113281 L 24.902344 -8.113281 L 24.902344 -9.421875 L 42.15625 -9.421875 Z M 42.15625 -8.113281 "/></g></g></g><g fill="#071d54" fill-opacity="1"><g transform="translate(573.297712, 428.249998)"><g><path d="M 67.902344 -26.207031 L 75.921875 -26.207031 L 75.921875 -26.582031 C 75.921875 -28.914062 75.734375 -30.964844 75.363281 -32.925781 L 63.796875 -32.925781 C 63.238281 -36.09375 62.210938 -38.707031 60.71875 -40.757812 C 59.972656 -41.691406 59.226562 -42.53125 58.292969 -43.183594 L 73.402344 -43.183594 C 72.003906 -44.304688 70.417969 -45.050781 68.648438 -45.421875 L 55.121094 -45.421875 C 53.910156 -45.703125 52.605469 -45.890625 51.207031 -45.890625 L 23.316406 -45.890625 C 21.917969 -45.890625 20.054688 -46.449219 20.054688 -51.019531 L 20.054688 -52.136719 L 32.269531 -52.136719 L 32.269531 -57.921875 C 32.269531 -58.199219 32.269531 -58.574219 32.269531 -58.851562 L 24.714844 -58.851562 C 24.714844 -58.851562 24.714844 -58.851562 24.714844 -58.945312 L 20.800781 -58.945312 C 20.890625 -60.160156 21.171875 -61.09375 21.636719 -61.839844 C 21.917969 -62.398438 22.476562 -63.050781 24.0625 -63.050781 L 62.023438 -63.050781 C 62.675781 -63.050781 64.261719 -63.332031 64.542969 -65.476562 L 73.402344 -65.476562 C 73.402344 -65.753906 73.402344 -65.941406 73.402344 -66.222656 L 73.402344 -72.191406 L 62.117188 -72.191406 L 62.117188 -73.683594 C 62.117188 -76.574219 60.34375 -76.855469 59.507812 -76.855469 L 19.308594 -76.855469 C 14.550781 -76.855469 10.914062 -75.269531 8.488281 -72.191406 L 19.773438 -72.191406 C 19.585938 -72.003906 19.492188 -71.910156 19.308594 -71.726562 C 18.09375 -69.953125 17.160156 -67.808594 16.601562 -65.476562 L 7.742188 -65.476562 C 7.273438 -63.515625 6.996094 -61.277344 6.996094 -58.945312 L 10.820312 -58.945312 C 10.820312 -58.851562 10.820312 -58.851562 10.820312 -58.851562 L 12.5 -58.851562 C 12.5 -58.761719 12.5 -58.667969 12.5 -58.480469 L 12.5 -52.136719 L 6.25 -52.136719 L 6.25 -51.390625 C 6.25 -49.246094 6.34375 -47.289062 6.621094 -45.421875 L 15.761719 -45.421875 C 15.949219 -44.675781 16.042969 -43.929688 16.230469 -43.183594 L 5.410156 -43.183594 C 6.0625 -40.480469 6.996094 -38.148438 8.207031 -36.46875 C 9.605469 -34.601562 11.285156 -33.578125 13.152344 -32.925781 L 24.714844 -32.925781 C 26.675781 -32.269531 28.820312 -32.085938 30.871094 -32.085938 L 58.851562 -32.085938 C 60.253906 -32.085938 62.117188 -31.523438 62.117188 -26.953125 L 62.117188 -26.207031 L 54.097656 -26.207031 L 54.097656 -18.933594 C 54.097656 -17.347656 53.816406 -16.136719 53.351562 -15.203125 L 60.160156 -15.203125 C 60.160156 -15.109375 60.160156 -15.109375 60.066406 -15.015625 C 59.785156 -14.457031 59.226562 -13.804688 57.640625 -13.804688 L 17.816406 -13.804688 C 17.253906 -13.804688 16.414062 -13.710938 15.761719 -12.964844 L 3.359375 -12.964844 C 2.984375 -12.5 2.703125 -11.753906 2.703125 -10.632812 L 2.703125 -4.011719 L 13.992188 -4.011719 L 13.992188 -3.171875 C 13.992188 -0.28125 15.855469 0 16.601562 0 L 58.761719 0 C 63.238281 0 66.6875 -1.304688 69.113281 -4.011719 L 57.828125 -4.011719 C 58.199219 -4.382812 58.480469 -4.757812 58.761719 -5.222656 C 60.34375 -7.367188 61.371094 -9.980469 61.929688 -12.964844 L 74.335938 -12.964844 C 74.429688 -13.710938 74.523438 -14.457031 74.617188 -15.203125 L 67.714844 -15.203125 C 67.808594 -16.230469 67.902344 -17.253906 67.902344 -18.375 Z M 39.265625 -16.882812 L 19.679688 -16.882812 L 19.679688 -19.308594 L 39.265625 -19.308594 Z M 59.597656 -48.78125 L 46.167969 -48.78125 L 46.167969 -51.207031 L 59.597656 -51.207031 Z M 45.421875 -27.140625 L 28.074219 -27.140625 L 28.074219 -28.449219 L 45.421875 -28.449219 Z M 54.003906 -58.292969 L 36.75 -58.292969 L 36.75 -59.507812 L 54.003906 -59.507812 Z M 54.003906 -58.292969 "/></g></g></g><g clip-path="url(#84f04984c8)"><path fill="#071d54" d="M 691.511719 333.757812 L 748.457031 390.449219 L 691.113281 447.535156 L 679.453125 435.925781 L 725.136719 390.449219 L 679.847656 345.363281 L 691.511719 333.757812 " fill-opacity="1" fill-rule="nonzero"/></g></svg>